<svg xmlns="http://www.w3.org/2000/svg" width="49.587" height="49.587" viewBox="0 0 49.587 49.587">
  <g id="noun_country_2450449" transform="translate(0 0)">
    <g id="Group_10" data-name="Group 10" transform="translate(0 0)">
      <path id="Path_6" data-name="Path 6" d="M48.131,15.628c-.4.849-.834,1.712-1.3,2.572a22.493,22.493,0,0,1,1.128,6.017H43.3c-.541.854-1.022,1.589-1.395,2.156h6.056a22.587,22.587,0,0,1-3.318,10.78H37.653a38.74,38.74,0,0,0,1.4-7.356l-1.522-2.2c-.035-.047-.2-.291-.448-.66a37.652,37.652,0,0,1-1.766,10.211H26.371V26.371H36.7c-.375-.567-.854-1.3-1.395-2.156H26.371V13.436h3.148a10.548,10.548,0,0,1-.686-2.156H26.371V2.764a7.574,7.574,0,0,1,3.316,1.6A10.821,10.821,0,0,1,31.819,1.4,24.728,24.728,0,1,0,48.131,15.628ZM18.371,3.652a21.349,21.349,0,0,0-4.7,7.628H7.438A22.808,22.808,0,0,1,18.371,3.652ZM5.942,13.436h6.99a40.951,40.951,0,0,0-1.621,10.78H2.621A22.551,22.551,0,0,1,5.942,13.436ZM2.621,26.371H11.31a40.86,40.86,0,0,0,1.623,10.78H5.942A22.542,22.542,0,0,1,2.621,26.371ZM7.438,39.307h6.231a21.349,21.349,0,0,0,4.7,7.628A22.746,22.746,0,0,1,7.438,39.307Zm16.777,8.516c-3.253-.591-6.17-3.818-8.147-8.516h8.147Zm0-10.672H15.268a37.718,37.718,0,0,1-1.8-10.78H24.215Zm0-12.936H13.466a37.7,37.7,0,0,1,1.8-10.78h8.947Zm0-12.936H16.068c1.977-4.7,4.894-7.925,8.147-8.516Zm2.156,36.543V39.307h8.147C32.539,44.007,29.625,47.232,26.371,47.823Zm5.843-.888a21.344,21.344,0,0,0,4.706-7.628h6.233A22.8,22.8,0,0,1,32.214,46.935Z" transform="translate(-0.5 -0.5)" fill="#fff"/>
      <path id="Path_7" data-name="Path 7" d="M14.6,10.133a8.5,8.5,0,0,0,1.018,3.156c2.324,5.605,7.5,13.082,7.5,13.082s5.181-7.477,7.5-13.08a8.528,8.528,0,0,0,1.018-3.158,5.853,5.853,0,0,0,.1-1.009,8.624,8.624,0,0,0-17.247,0A5.853,5.853,0,0,0,14.6,10.133Zm8.522-5.321a4.312,4.312,0,1,1-4.312,4.312A4.313,4.313,0,0,1,23.124,4.812Z" transform="translate(15.683 -0.5)" fill="#fff"/>
    </g>
  </g>
</svg>
