<svg xmlns="http://www.w3.org/2000/svg" width="49.586" height="28.944" viewBox="0 0 49.586 28.944">
  <g id="noun_currency_1433627" transform="translate(0 0)">
    <g id="Group" transform="translate(0 0)">
      <path id="Compound_Path" data-name="Compound Path" d="M52.548,23.5H6.238A1.638,1.638,0,0,0,4.6,25.138V50.805a1.638,1.638,0,0,0,1.638,1.638h46.31a1.638,1.638,0,0,0,1.638-1.638V25.138A1.638,1.638,0,0,0,52.548,23.5ZM50.91,41.085a8.574,8.574,0,0,0-8.246,8.082H16.123A8.574,8.574,0,0,0,7.877,41.03V34.914a8.574,8.574,0,0,0,8.246-8.137H42.664a8.574,8.574,0,0,0,8.246,8.137Z" transform="translate(-4.6 -23.5)" fill="#fff"/>
      <path id="Path" d="M43.1,34.8a8.3,8.3,0,1,0,8.3,8.3A8.3,8.3,0,0,0,43.1,34.8Z" transform="translate(-18.308 -28.629)" fill="#fff"/>
    </g>
  </g>
</svg>
