<svg xmlns="http://www.w3.org/2000/svg" xmlns:xlink="http://www.w3.org/1999/xlink" width="1920" height="540" viewBox="0 0 1920 540">
  <defs>
    <clipPath id="clip-path">
      <rect id="Rectangle_243" data-name="Rectangle 243" width="1920" height="540" transform="translate(0 3628)" fill="#ff4d69"/>
    </clipPath>
  </defs>
  <g id="Mask_Group_48" data-name="Mask Group 48" transform="translate(0 -3628)" clip-path="url(#clip-path)">
    <path id="_312_Converted_-02" data-name="312 [Converted]-02" d="M132.039,716.176c-2.921,15.7-1.46,20.811,10.953,27.748,2.556,1.46,5.842,1.826,5.842,4.746-.73,7.3,7.3,10.588,6.207,18.985-.73,5.477,2.921,12.779,6.572,17.89,5.477,6.937,11.683,13.144,9.493,23.367,7.3,6.207,5.111,22.271,19.351,21.541,2.191,7.667,5.842,14.239,11.683,18.985,2.191,1.826,4.746,5.477,6.207,5.111,11.318-4.016,18.985,7.3,29.208,6.937,4.746-.365,5.477,2.556,6.572,6.937,2.191,8.4,8.4,13.509,16.795,11.318,7.667-1.826,11.318,6.207,17.525,6.572a134.655,134.655,0,0,0,17.16.365c10.953-.73,22.636,4.381,32.129-5.477,10.588.365,21.176.365,31.4.73,8.763-8.4,19.351-5.111,29.208-5.477,5.111-7.667,15.334-2.556,19.716-7.667,6.572-7.667,18.255,1.46,22.271-9.493,5.842,0,11.683,1.1,17.16,0,3.286-.73,5.477-7.667,9.128-5.111,13.509,9.858,28.478,5.842,43.082,5.842.73,0,1.826-1.461,1.826-2.191s-1.1-1.826-1.826-2.191c-4.746-.73-9.493-.73-13.874-1.46s-9.493,2.191-12.414-3.651c3.286-1.461,8.032-1.826,9.493-4.381,5.477-8.762,17.89,1.46,22.271-9.858,6.207-1.1,13.874,3.286,18.985-2.191,5.842-6.207,12.414-2.556,18.985-2.921,7.3-.365,14.969,1.1,20.811-5.842,11.318.365,22.636.73,33.955,1.826,2.191.365,2.921,5.842,7.667,5.111,3.286-.365,4.746-2.921,6.937-4.381,6.207-3.651,15.334,1.1,20.081-7.3,7.3-.73,15.334,4.016,21.176-4.746,7.667-.365,14.969-.365,22.636-.73,6.207-.365,13.509,2.556,18.255-5.111.365-.73,1.826-.73,2.556-.73,11.318-.365,22.636-.365,33.955-.73,10.223-8.762,21.906-2.191,32.494-4.016,7.3-1.46,14.6,3.651,21.541-3.286,5.111-5.111,12.779-1.46,18.985-1.826,7.667-.365,15.334,0,23,.365,8.4-10.588,19.351-5.111,29.208-5.111,7.667,0,11.683-9.493,20.811-6.572,6.937,2.556,14.969.73,22.636,1.1,15.7-11.318,32.859-3.286,49.289-5.112,5.477-.365,10.953.73,15.334-4.746,1.826-2.191,3.651,7.3,7.667,3.286,2.921-2.921,5.842-4.381,9.858-4.016,6.572.365,13.509.365,20.081.365,48.559,1.1,97.483,2.556,146.042,2.556,11.683,0,24.827,6.572,35.05-5.111,7.667,0,15.334,1.1,23,.365,13.509-1.46,28.113,6.207,40.892-5.111,14.239.365,28.478.73,43.082.73,6.207,0,12.779,2.556,18.62-4.016,2.191-2.556,8.762-1.1,13.509-1.1,64.988,1.1,129.977,2.556,194.965,3.651,7.3,0,14.6,2.921,21.176-4.381,2.191-2.556,9.128-1.1,13.509-.73,40.161.73,80.323,1.46,120.484,2.556,7.667,0,15.334.365,23,.365,6.572,0,13.509-.365,20.081.73,8.032,1.1,13.874-3.286,20.811-5.477s15.334-.365,22.636,0,14.969-1.826,20.811,5.842c1.46,1.826,7.3.365,10.953.73,36.146.73,72.656,1.46,108.8,2.191,9.128,4.746,14.969-6.572,23.367-5.842,7.667.73,15.334.365,23,.73,8.763,0,17.525,1.826,25.557,0,6.937-1.46,12.779-6.572,20.811-5.477,8.4,1.46,17.16.73,25.922.73,7.667,0,15.334.73,23,.365,6.207-.365,13.509,3.286,18.62-4.016.365-.365,5.112,4.381,8.032,4.381,7.667.73,15.334,0,23,.73,8.762,1.1,18.986-3.651,26.288,5.842.365.73,1.825.365,2.556.73,9.858,2.191,20.081-2.921,30.3,4.016,8.763,6.207,20.081,2.556,30.3,2.921,8.4.365,13.874,10.953,23,6.937,3.286,6.207,9.128,5.842,14.6,6.207,6.207.365,13.144-2.556,18.255,4.746,1.46,2.191,6.937,1.1,10.588,1.826,16.43,2.921,33.59-4.746,49.289,6.572,3.286,2.556,9.493.365,14.239.73,51.479,1.1,102.959,2.191,154.8,2.921,8.032,0,16.43,3.651,24.1-4.381,2.556-2.556,9.128-.73,13.874-.73,33.59.73,66.814,1.46,100.4,1.826,1.1,0,2.191-2.191,2.921-3.651a4.868,4.868,0,0,0-1.826-2.191c-10.223-1.46-21.541,2.921-30.3-3.286-9.127-6.572-18.255-2.191-27.018-4.381-.73-.365-2.19-1.826-1.825-2.191.73-1.46,1.825-3.651,2.921-3.651,21.907.365,43.813,1.1,65.719,1.1,6.207,0,13.509,3.286,18.255-4.381,0-.365,2.921.73,3.651,1.826,3.651,4.746,8.763,2.556,13.143,3.286,8.4-9.128,19.351-4.381,29.208-5.477,8.032-1.1,12.048,8.4,20.446,6.937,6.572-1.46,13.144,0,20.081,0,5.112,8.4,13.509,5.111,20.446,6.937,5.841,1.461,10.953,5.842,16.429,8.763,1.46.73,3.286,3.651,4.381,3.286,9.858-2.191,17.89,6.572,26.288,6.207,10.953-1.1,18.255,10.588,29.208,7.3,5.111,7.667,13.144,5.842,20.446,6.572,5.477.73,12.048-2.921,16.064,2.556,4.746,5.842,10.223,3.651,15.7,4.016,5.841.73,11.318.365,17.16.73,8.032,10.588,19.35,4.746,29.208,6.572,13.509,2.556,28.478-5.111,40.527,6.937,11.318.365,23,0,34.32.73,7.3.365,15.334-2.921,20.811,5.477,19.716,1.46,39.431,2.556,59.512.73.365,0,1.46-1.46,1.095-1.826-.365-.73-1.46-2.191-1.825-2.191-9.128,2.556-14.6-6.937-23-7.3-7.667,0-15.334-.365-23-.365-.73,0-2.191-1.46-1.826-1.826.365-1.46,1.46-4.016,2.19-4.016l60.242,1.1c18.255.365,36.145.365,54.4,1.46,5.841.365,8.4-3.286,12.048-6.572,4.016-3.286,0-5.111-1.461-6.207-2.191-1.826-2.556-4.016.365-4.381,6.207-.365,9.858-4.381,13.874-8.4,8.4-8.4,9.858-16.065,4.381-28.843-.73-1.825-2.19-3.286-2.556-5.111-.73-3.286.73-6.207,3.651-6.572,3.651-.73,7.667,0,11.318-.73,2.556-.73,2.556-2.191.73-4.016s-4.016-3.651-4.016-7.3c.731-13.144.731-26.288.731-39.431,0-4.381.73-8.032,4.381-10.223,8.032-4.746,7.3-12.779,8.032-20.811.365-7.3-.365-13.874-6.572-18.255-4.746-3.286-3.286-8.763-5.842-12.414-7.3-10.223-17.16-16.795-28.843-20.446-3.286-1.1-4.746-7.3-2.556-9.858a91.147,91.147,0,0,1,8.4-8.4c2.191-1.826,2.556-2.921,1.1-4.381-6.572-5.842-2.921-8.032,2.921-7.3,6.937,1.1,10.588-2.921,14.239-7.3,2.556-2.921,2.191-8.763-.73-10.223-2.191-1.1-5.477-1.1-7.667-2.556-4.747-2.921-6.207-10.953-12.779-10.223-4.747.73-5.112-9.493-10.953-3.651-5.842,6.207-7.667-5.477-13.509-3.286-8.4,2.556-13.874-10.223-23.367-6.572-1.1.365-4.016-3.651-5.842-5.842-3.651-3.651-3.286-3.651,3.651-5.842a19.659,19.659,0,0,0,4.746-2.556c-1.1-1.1-2.556-3.651-3.286-3.286-8.4,3.286-13.144-5.842-20.446-6.572-6.207-.73-13.509,1.826-17.89-5.842-.73-1.1-3.651-1.46-5.111-.73-9.128,3.286-14.969-6.207-23.367-6.572-4.381-6.937-10.953-6.572-17.525-6.572-2.921-7.3-12.414-4.381-15.7-10.953a3,3,0,0,0-2.19-1.46c-7.667-.365-14.969-.73-22.636-1.46-4.381-7.667-12.048-6.937-17.89-5.111-9.128,2.556-13.144-6.937-20.446-6.937-6.572,0-13.874.73-18.986-2.191-4.381-2.556-8.032-5.112-12.779-4.016-7.667,2.191-11.318-6.937-17.525-6.207-8.032.73-12.048-4.016-16.43-9.128-1.1-1.46-3.286-3.651-4.381-3.286-10.953,3.286-19.35-8.032-28.843-6.207-11.318,2.191-18.986-7.667-29.208-6.937-4.746.365-6.937-3.286-8.763-6.207-3.651-5.477-8.762-6.937-14.6-6.572-5.476.365-8.032-8.032-14.6-6.572-4.381,1.1-10.588,1.826-14.239-.365-14.6-10.588-31.034-4.746-46.368-6.572-6.207-.73-13.144,1.825-18.255-5.112-1.461-2.191-6.937-1.1-10.588-1.46-13.509-.365-26.652,0-40.161-1.1-8.032-.365-17.16,3.286-23.732-5.477-1.1-1.46-5.477-.73-8.032-.73-11.318-.365-23-.365-34.32-.73-5.477-.365-12.779.73-16.065-2.191-5.111-5.111-10.223-4.016-15.7-4.381-5.842-.365-11.318-.365-17.16-.365-9.858-12.048-23-4.381-34.685-6.572-9.858-1.826-20.446,2.921-29.208-6.572-1.826-2.191-7.3,0-11.318-.73-13.509-2.556-28.478,5.111-40.526-6.572-1.1-1.1-3.651,0-5.477-.365-11.684-1.46-24.462,3.651-34.685-6.572-9.493-.365-18.985-1.1-28.478-.365-7.3.73-11.684-4.381-17.525-6.572-5.112-1.826-11.318-.365-16.43-2.556-3.286-1.46-5.477-4.746-9.858-4.381-7.3.365-15.334,1.826-15.7-10.223,0-.73-2.921-1.826-4.746-1.826-4.746-.365-8.763-.73-12.779-4.381-4.381-4.016-10.953-7.667-16.795-7.667-6.207-.365-9.858-6.572-14.6-6.207-9.127.365-14.6-7.667-22.636-8.4-2.19-5.842-8.762-2.921-11.683-6.572-1.826-2.921-2.556-6.937-4.016-10.223-5.476-12.048-5.476-12.048-14.6-12.048-10.588-.365-21.176-1.1-31.4-.365-7.3.365-9.858-8.762-17.525-6.937-6.207,1.46-13.144,0-20.081,0-6.572,0-13.509.365-20.081-.73-8.032-1.46-14.239-7.667-23.367-6.572-8.4,1.1-17.16,0-25.922-.365-1.46,0-2.921-1.825-4.381-3.286-4.381-4.746-8.4-3.651-11.683,1.1-1.826,2.191-2.556,2.556-4.016.365-2.19-4.016-5.841-4.381-9.858-4.381-35.415-.73-70.83-1.825-105.88-1.46-8.4,0-12.414-7.667-20.446-6.937-8.4.73-17.16,0-25.922-.365-7.667,0-15.335-.365-23-.365-8.763,0-17.16-.365-25.922-.365-7.667,0-15.334-.73-23-.365-4.381,0-6.572-2.556-9.493-4.746-1.826-1.46-6.572-1.826-7.3-.73-5.112,7.3-12.048,4.746-18.255,4.381-62.068-1.1-124.135-2.556-186.2-3.651-8.032,0-16.795-3.651-24.1,4.381-1.825,2.191-7.3.73-10.953.73-32.494-.73-64.989-1.46-97.483-1.826-9.858,0-20.811-5.111-29.573,4.746-.73,1.1-3.651.365-5.477.365-3.651,0-7.667,0-11.318-.365-8.763,0-17.16-.365-25.922-.365s-17.525,1.46-25.557-1.1c-9.493-2.556-14.969,6.937-23.732,6.207-8.4-.73-17.525-1.826-25.557-.365-6.937,1.46-12.779,6.937-20.811,5.477-6.572-1.46-13.874-2.191-19.716,0-6.937,2.191-12.779,6.572-20.811,5.477-6.572-1.1-13.509-.365-20.081-.73-7.667,0-15.334-.73-23-.365-6.207,0-13.509-2.921-18.255,4.381-.73,1.1-3.286,1.1-5.111,1.1-4.746,0-9.493,0-14.239-.365-10.588-.365-21.176-.365-31.4-.73-9.493-.365-18.985-.365-28.478-.73-10.588-.365-21.176.73-31.4-1.1-9.858-1.46-17.525,5.111-26.287,5.477-20.811.73-41.987-.365-63.163-1.1-3.651,0-9.128-1.826-11.318,0-10.953,10.223-23.732,4.381-35.415,4.746-7.667,0-12.413,8.4-20.811,6.207-6.207-1.46-13.144-.365-20.081-.73-6.207,9.493-15.7,5.842-23.367,5.111-7.3-.73-9.858,8.762-17.89,6.572-6.207-1.826-13.144-.73-20.081-.73-10.588,9.128-23.367,5.477-35.05,5.111-8.762-.365-14.239,9.128-23.732,6.207-7.3-2.191-15.334-.73-23-.73-10.588,10.953-23.367,4.746-35.05,5.111-7.667,0-12.414,8.4-20.811,6.207-6.207-1.46-13.144-.365-20.081-.73-8.4,10.588-19.351,4.746-29.208,5.111-7.667,0-11.683,9.493-20.811,6.572-6.937-2.556-14.969-.73-22.636-.73-12.779,9.858-27.018,4.016-40.892,5.111-9.858,1.1-18.62,9.128-29.208,5.477-6.572,8.032-15.334,5.477-23.367,5.477-4.016,10.223-14.969,1.826-19.716,8.032-5.477,7.3-15.7-1.46-20.081,8.032-10.953,1.1-21.176,4.746-29.573,12.048-10.588-1.46-18.62,5.842-27.383,10.223a21.116,21.116,0,0,1-5.111,1.826c-6.207,1.1-12.779-2.556-18.62,4.016-4.381,5.112-12.414-1.46-17.89,5.842-3.651,4.746-13.509-1.826-17.16,6.207-11.318-1.46-20.081,9.858-31.764,6.207-5.477-1.826-6.937,6.572-12.048,5.842-4.746-.365-10.953-2.191-13.874,0-4.381,4.016-9.858,4.381-14.6,7.667-1.46,1.1-3.286,3.651-4.381,3.286-10.588-3.286-15.7,4.746-21.541,10.953-8.4,8.4-16.43,17.16-24.827,24.827-3.651,3.286,0,11.318-6.572,11.318-4.381,0-6.572,4.381-9.493,4.746-7.667.73-10.953,6.572-16.065,10.588s-4.746,7.3,0,10.588c-9.493,6.937-.365,27.748-18.985,27.383-9.128,8.763-18.255,17.525-27.018,26.653-.365.365-.365,1.826-.365,2.921,1.1,10.588-4.381,15.7-13.509,18.62-4.016,1.1-6.937,6.572-10.588,9.128-5.477,4.016-3.651,6.572,0,10.953,1.826,2.556-1.1,8.762.73,11.318,5.111,7.3-10.223,9.493-2.556,17.525,5.111,5.111.73,13.509,1.826,20.081.73,4.746-2.556,10.223,1.826,14.239,5.111,4.746,3.286,13.144,9.493,17.16,3.286,1.826,5.111,5.842,8.032,8.4C134.23,706.318,132.769,711.794,132.039,716.176Z" transform="translate(-688.719 3362.635)" fill="#ff4d69" fill-rule="evenodd"/>
  </g>
</svg>
