<svg xmlns="http://www.w3.org/2000/svg" width="28.545" height="28.545" viewBox="0 0 28.545 28.545">
  <g id="_001-loupe" data-name="001-loupe" transform="translate(0 0)">
    <g id="Group_4" data-name="Group 4">
      <g id="Group_3" data-name="Group 3">
        <path id="Path_3" data-name="Path 3" d="M12.571,0A12.571,12.571,0,1,0,25.141,12.571,12.585,12.585,0,0,0,12.571,0Zm0,22.82a10.25,10.25,0,1,1,10.25-10.25A10.262,10.262,0,0,1,12.571,22.82Z" fill="#fff"/>
      </g>
    </g>
    <g id="Group_6" data-name="Group 6" transform="translate(19.571 19.571)">
      <g id="Group_5" data-name="Group 5">
        <path id="Path_4" data-name="Path 4" d="M359.679,358.038l-6.653-6.653a1.16,1.16,0,0,0-1.641,1.641l6.653,6.653a1.16,1.16,0,0,0,1.641-1.641Z" transform="translate(-351.046 -351.046)" fill="#fff"/>
      </g>
    </g>
  </g>
</svg>
