<svg xmlns="http://www.w3.org/2000/svg" width="49.587" height="49.587" viewBox="0 0 49.587 49.587">
  <g id="noun_world_104260" transform="translate(0 0)">
    <path id="Path_5" data-name="Path 5" d="M54.587,29.628A24.794,24.794,0,0,0,5,29.628v.331a24.794,24.794,0,0,0,49.587,0v-.331Zm-8.32,14.766a25.91,25.91,0,0,0-4.793-3.361,45.3,45.3,0,0,0,1.377-9.862h8.926A21.916,21.916,0,0,1,46.267,44.394ZM7.81,31.171h8.926a44.823,44.823,0,0,0,1.377,9.862,23.527,23.527,0,0,0-4.793,3.361A21.916,21.916,0,0,1,7.81,31.171Zm5.51-15.978a25.91,25.91,0,0,0,4.793,3.361,41.761,41.761,0,0,0-1.377,9.862H7.81A21.916,21.916,0,0,1,13.32,15.193Zm15.1,3.471a22.258,22.258,0,0,1-7-1.6c1.653-4.848,4.132-8.264,7-9.091Zm0,2.755v7H19.49a42.616,42.616,0,0,1,1.157-8.705A25.185,25.185,0,0,0,28.416,21.419Zm0,9.752v7a25.185,25.185,0,0,0-7.769,1.708,42.616,42.616,0,0,1-1.157-8.705h8.926Zm0,9.752V51.611c-2.865-.826-5.344-4.3-7-9.091A22.257,22.257,0,0,1,28.416,40.923Zm2.755,0a22.257,22.257,0,0,1,7,1.6c-1.653,4.848-4.132,8.264-7,9.091V40.923Zm0-2.755v-7H40.1a42.617,42.617,0,0,1-1.157,8.705A25.185,25.185,0,0,0,31.171,38.168Zm0-9.752v-7a25.185,25.185,0,0,0,7.769-1.708A42.617,42.617,0,0,1,40.1,28.416Zm0-9.752V7.975c2.865.826,5.344,4.3,7,9.091A22.258,22.258,0,0,1,31.171,18.664Zm5.785-9.7a22.189,22.189,0,0,1,7.383,4.3,23.091,23.091,0,0,1-3.636,2.59A22.617,22.617,0,0,0,36.956,8.967ZM18.939,15.854a20.8,20.8,0,0,1-3.636-2.59,22.189,22.189,0,0,1,7.383-4.3A20.488,20.488,0,0,0,18.939,15.854Zm0,27.879a24.564,24.564,0,0,0,3.691,6.887,22.189,22.189,0,0,1-7.383-4.3A21.21,21.21,0,0,1,18.939,43.733Zm21.708,0a20.8,20.8,0,0,1,3.636,2.59,22.189,22.189,0,0,1-7.383,4.3A20.488,20.488,0,0,0,40.647,43.733Zm2.2-15.317a41.761,41.761,0,0,0-1.377-9.862,23.527,23.527,0,0,0,4.793-3.361,22.251,22.251,0,0,1,5.51,13.223Z" transform="translate(-5 -5)" fill="#fff"/>
  </g>
</svg>
